<svg width="127" height="33" viewBox="0 0 127 33" fill="none" xmlns="http://www.w3.org/2000/svg">
<path d="M0.216 1.512H7.8C9.76267 1.512 11.2347 2.056 12.216 3.144C13.1973 4.232 13.6987 5.84267 13.72 7.976L13.784 20.84C13.8053 23.5493 13.336 25.5867 12.376 26.952C11.416 28.3173 9.82667 29 7.608 29H0.216V1.512ZM6.712 24.136C7.71467 24.136 8.216 23.6453 8.216 22.664V8.488C8.216 7.86933 8.16267 7.41067 8.056 7.112C7.97067 6.792 7.8 6.57866 7.544 6.472C7.288 6.36533 6.89333 6.312 6.36 6.312H5.752V24.136H6.712ZM22.4613 29.256C20.0506 29.256 18.3226 28.5947 17.2773 27.272C16.2319 25.9493 15.7093 23.976 15.7093 21.352V11.944C15.7093 9.78933 16.3279 8.14667 17.5653 7.016C18.8026 5.88533 20.5306 5.32 22.7493 5.32C27.2506 5.32 29.5013 7.528 29.5013 11.944V13.64C29.5013 15.3467 29.4799 16.7333 29.4373 17.8H21.3093V22.344C21.3093 23.1547 21.3946 23.7947 21.5653 24.264C21.7359 24.712 22.0986 24.936 22.6533 24.936C23.0799 24.936 23.3786 24.808 23.5493 24.552C23.7413 24.296 23.8479 24.008 23.8693 23.688C23.9119 23.3467 23.9333 22.856 23.9333 22.216V19.944H29.5013V21.288C29.5013 24.0187 28.9679 26.0347 27.9013 27.336C26.8559 28.616 25.0426 29.256 22.4613 29.256ZM23.9333 15.016V12.008C23.9333 10.3227 23.5173 9.48 22.6853 9.48C21.7466 9.48 21.2773 10.3227 21.2773 12.008V15.016H23.9333ZM37.9583 29.256C33.3289 29.256 31.0143 26.9093 31.0143 22.216L31.0463 20.36H36.6463L36.6783 23.112C36.6783 23.6667 36.7849 24.0933 36.9983 24.392C37.2116 24.6693 37.5636 24.808 38.0543 24.808C38.8009 24.808 39.1743 24.2 39.1743 22.984C39.1743 22.088 38.9929 21.384 38.6302 20.872C38.2889 20.36 37.7343 19.816 36.9663 19.24L33.9903 16.936C32.9663 16.1467 32.2303 15.336 31.7823 14.504C31.3343 13.6507 31.1103 12.456 31.1103 10.92C31.1103 9.72533 31.4196 8.712 32.0383 7.88C32.6783 7.02667 33.5209 6.38667 34.5663 5.96C35.6116 5.53333 36.7743 5.32 38.0543 5.32C42.5983 5.32 44.8703 7.58133 44.8703 12.104V12.552H39.0783V11.656C39.0783 11.1013 38.9823 10.632 38.7903 10.248C38.6196 9.84267 38.3209 9.64 37.8943 9.64C37.5103 9.64 37.2116 9.75733 36.9983 9.992C36.8063 10.2053 36.7103 10.504 36.7103 10.888C36.7103 11.7413 37.0409 12.4027 37.7023 12.872L41.1583 15.4C42.3956 16.3173 43.3449 17.32 44.0063 18.408C44.6676 19.4747 44.9983 20.8293 44.9983 22.472C44.9983 24.648 44.3796 26.3227 43.1423 27.496C41.9049 28.6693 40.1769 29.256 37.9583 29.256ZM46.6818 4.008V0.103998H52.2818V4.008H46.6818ZM46.6818 29V5.576H52.2818V29H46.6818ZM60.799 32.424C59.135 32.424 57.823 32.2853 56.863 32.008C55.9243 31.752 54.9963 31.2507 54.079 30.504L55.999 27.272C57.3643 28.0827 58.719 28.488 60.063 28.488C60.9377 28.488 61.599 28.2107 62.047 27.656C62.495 27.1013 62.719 26.344 62.719 25.384V24.104C62.271 25.704 61.087 26.504 59.167 26.504C57.567 26.504 56.383 25.96 55.615 24.872C54.8683 23.784 54.495 22.3333 54.495 20.52V11.72C54.495 9.65067 54.8363 8.072 55.519 6.984C56.223 5.87467 57.439 5.32 59.167 5.32C60.1697 5.32 60.959 5.576 61.535 6.088C62.1323 6.57867 62.527 7.28267 62.719 8.2V5.576H68.447V25.032C68.447 27.656 67.839 29.544 66.623 30.696C65.407 31.848 63.4657 32.424 60.799 32.424ZM61.407 22.28C62.2817 22.28 62.719 21.4907 62.719 19.912V11.56C62.719 11.0907 62.591 10.6427 62.335 10.216C62.079 9.78933 61.759 9.576 61.375 9.576C60.8843 9.576 60.5537 9.75733 60.383 10.12C60.2123 10.4613 60.127 10.9413 60.127 11.56V19.912C60.127 20.616 60.2123 21.192 60.383 21.64C60.5537 22.0667 60.895 22.28 61.407 22.28ZM70.62 5.576H76.22V8.552C76.4547 7.592 76.86 6.81333 77.436 6.216C78.012 5.61867 78.78 5.32 79.74 5.32C81.3187 5.32 82.4813 5.81067 83.228 6.792C83.996 7.752 84.38 9.128 84.38 10.92V29H78.876V11.496C78.876 10.984 78.7693 10.5467 78.556 10.184C78.364 9.82133 78.0547 9.64 77.628 9.64C77.052 9.64 76.668 9.90667 76.476 10.44C76.3053 10.952 76.22 11.6453 76.22 12.52V29H70.62V5.576ZM93.1488 29.256C90.7381 29.256 89.0101 28.5947 87.9648 27.272C86.9194 25.9493 86.3968 23.976 86.3968 21.352V11.944C86.3968 9.78933 87.0154 8.14667 88.2528 7.016C89.4901 5.88533 91.2181 5.32 93.4368 5.32C97.9381 5.32 100.189 7.528 100.189 11.944V13.64C100.189 15.3467 100.167 16.7333 100.125 17.8H91.9968V22.344C91.9968 23.1547 92.0821 23.7947 92.2528 24.264C92.4234 24.712 92.7861 24.936 93.3408 24.936C93.7674 24.936 94.0661 24.808 94.2368 24.552C94.4288 24.296 94.5354 24.008 94.5568 23.688C94.5994 23.3467 94.6208 22.856 94.6208 22.216V19.944H100.189V21.288C100.189 24.0187 99.6554 26.0347 98.5888 27.336C97.5434 28.616 95.7301 29.256 93.1488 29.256ZM94.6208 15.016V12.008C94.6208 10.3227 94.2048 9.48 93.3728 9.48C92.4341 9.48 91.9648 10.3227 91.9648 12.008V15.016H94.6208ZM102.214 5.576H107.814V8.168C108.091 7.25067 108.571 6.54667 109.254 6.056C109.958 5.544 110.822 5.288 111.846 5.288V9.96C111.056 9.96 110.182 10.0773 109.222 10.312C108.283 10.5253 107.814 10.7813 107.814 11.08V29H102.214V5.576ZM119.646 29.256C115.016 29.256 112.702 26.9093 112.702 22.216L112.734 20.36H118.334L118.366 23.112C118.366 23.6667 118.472 24.0933 118.686 24.392C118.899 24.6693 119.251 24.808 119.742 24.808C120.488 24.808 120.862 24.2 120.862 22.984C120.862 22.088 120.68 21.384 120.318 20.872C119.976 20.36 119.422 19.816 118.654 19.24L115.678 16.936C114.654 16.1467 113.918 15.336 113.47 14.504C113.022 13.6507 112.798 12.456 112.798 10.92C112.798 9.72533 113.107 8.712 113.726 7.88C114.366 7.02667 115.208 6.38667 116.254 5.96C117.299 5.53333 118.462 5.32 119.742 5.32C124.286 5.32 126.558 7.58133 126.558 12.104V12.552H120.766V11.656C120.766 11.1013 120.67 10.632 120.478 10.248C120.307 9.84267 120.008 9.64 119.582 9.64C119.198 9.64 118.899 9.75733 118.686 9.992C118.494 10.2053 118.398 10.504 118.398 10.888C118.398 11.7413 118.728 12.4027 119.39 12.872L122.846 15.4C124.083 16.3173 125.032 17.32 125.694 18.408C126.355 19.4747 126.686 20.8293 126.686 22.472C126.686 24.648 126.067 26.3227 124.83 27.496C123.592 28.6693 121.864 29.256 119.646 29.256Z" fill="#EA473B"/>
</svg>
